<svg width="22" height="22" viewBox="0 0 22 22" fill="none" xmlns="http://www.w3.org/2000/svg">
<path d="M10.1359 19.5955C8.23281 17.3326 4 11.8481 4 8.76751C4 5.02987 7.13396 2 11 2C14.8646 2 18 5.02987 18 8.76751C18 11.8481 13.7344 17.3326 11.8641 19.5955C11.4156 20.1348 10.5844 20.1348 10.1359 19.5955ZM11 11.0234C12.287 11.0234 13.3333 10.0117 13.3333 8.76751C13.3333 7.52328 12.287 6.51168 11 6.51168C9.71302 6.51168 8.66667 7.52328 8.66667 8.76751C8.66667 10.0117 9.71302 11.0234 11 11.0234Z" fill="black"/>
</svg>
