<svg width="22" height="22" viewBox="0 0 22 22" fill="none" xmlns="http://www.w3.org/2000/svg">
<path d="M19.2688 17.1976L15.9582 13.8876C15.8088 13.7382 15.6062 13.6552 15.3937 13.6552H14.8525C15.7689 12.4832 16.3135 11.0091 16.3135 9.40558C16.3135 5.59091 13.2221 2.5 9.40676 2.5C5.59144 2.5 2.5 5.59091 2.5 9.40558C2.5 13.2202 5.59144 16.3112 9.40676 16.3112C11.0106 16.3112 12.4849 15.7667 13.6571 14.8504V15.3915C13.6571 15.604 13.7401 15.8065 13.8895 15.9559L17.2001 19.2659C17.5122 19.578 18.017 19.578 18.3258 19.2659L19.2655 18.3264C19.5776 18.0143 19.5776 17.5097 19.2688 17.1976ZM9.40676 13.6552C7.05912 13.6552 5.15644 11.7561 5.15644 9.40558C5.15644 7.05834 7.0558 5.15599 9.40676 5.15599C11.7544 5.15599 13.6571 7.05502 13.6571 9.40558C13.6571 11.7528 11.7577 13.6552 9.40676 13.6552Z" fill="white"/>
</svg>
